<svg width="175" height="201" viewBox="0 0 175 201" fill="none" xmlns="http://www.w3.org/2000/svg">
<g clip-path="url(#clip0_1_246)">
<path d="M105.44 95.94H102.44C93.43 95.94 81.28 95.86 72.28 95.99C72.42 86.65 72.38 74.31 72.38 64.97V62.25C72.15 62.21 72.61 62.29 72.38 62.25C69.95 73.45 66.82 84.53 64.35 95.93C56.73 95.93 49.25 95.97 41.76 95.85C39.54 85.84 35.07 72.09 32.91 62.07C32.77 61.43 33.48 62.69 32.91 62.07V95.72H0V0.19C0.81 0.14 1.62 0.06 2.43 0.06C14.94 0.06 29.37 0.08 41.88 0L52.79 43.89C52.18 43.12 52.97 44.68 52.79 43.89L64.66 0.02C77.75 0.08 92.35 0.01 105.44 0.12V95.94Z" fill="#BED747"/>
<path d="M105.43 104.82V200.44H72.86L33.76 153.39C33.17 152.72 34.87 154.59 33.76 153.39V200.44H0V104.82H32.26L72.86 155.71V104.82H104.81" fill="#BED747"/>
<path d="M173.96 0.230011H114.24V95.75H173.96V0.230011Z" fill="#BED747"/>
<path d="M146.02 107.65H113.45V200.44H146.02V107.65Z" fill="#BED747"/>
<path d="M174.14 104.82H78.52V137.39H174.14V104.82Z" fill="#BED747"/>
<path d="M127.4 67.97V69.51H130.19V70.35H127.4V72.03H130.37V72.98H126.26V67.02H130.34V67.97H127.4Z" fill="#002C28"/>
<path d="M135.45 71L134.42 67.9L133.41 71H135.45ZM135.71 71.84H133.14L132.77 72.98H131.57L133.55 67.02H135.25L137.26 72.98H136.08L135.7 71.84H135.71Z" fill="#002C28"/>
<path d="M139.81 67.02V71.97H142.6V72.98H138.68V67.02H139.81Z" fill="#002C28"/>
<path d="M120.74 76.92V78.45H123.53V79.29H120.74V80.97H123.71V81.92H119.61V75.96H123.68V76.92H120.74Z" fill="#002C28"/>
<path d="M134.07 76.98V81.92H132.94V76.98H131.22V75.96H135.85V76.98H134.07Z" fill="#002C28"/>
<path d="M140.66 79.95L139.63 76.85L138.62 79.95H140.66ZM140.93 80.78H138.36L137.99 81.92H136.79L138.77 75.96H140.47L142.48 81.92H141.3L140.92 80.78H140.93Z" fill="#002C28"/>
<path d="M146.26 76.98V81.92H145.13V76.98H143.41V75.96H148.05V76.98H146.26Z" fill="#002C28"/>
<path d="M150.52 76.92V78.45H153.32V79.29H150.52V80.97H153.5V81.92H149.39V75.96H153.47V76.92H150.52Z" fill="#002C28"/>
<path d="M123.07 88.89L122.04 85.79L121.03 88.89H123.07ZM123.33 89.72H120.76L120.39 90.86H119.19L121.17 84.9H122.87L124.88 90.86H123.7L123.32 89.72H123.33Z" fill="#002C28"/>
<path d="M130.72 86.64H129.62C129.62 86.58 129.62 86.54 129.62 86.52C129.59 86.19 129.52 85.97 129.4 85.89C129.28 85.8 128.99 85.76 128.54 85.76C128 85.76 127.65 85.81 127.49 85.91C127.33 86.01 127.24 86.22 127.24 86.53C127.24 86.91 127.31 87.13 127.44 87.21C127.57 87.29 128.02 87.34 128.77 87.38C129.66 87.43 130.23 87.56 130.49 87.76C130.75 87.96 130.88 88.39 130.88 89.03C130.88 89.82 130.73 90.33 130.42 90.56C130.12 90.79 129.44 90.91 128.4 90.91C127.46 90.91 126.84 90.8 126.53 90.57C126.22 90.34 126.07 89.88 126.07 89.19V88.97H127.17V89.1C127.17 89.52 127.25 89.77 127.39 89.86C127.53 89.95 127.93 90 128.58 90C129.09 90 129.41 89.95 129.55 89.84C129.69 89.73 129.76 89.48 129.76 89.09C129.76 88.8 129.71 88.61 129.6 88.52C129.49 88.43 129.26 88.37 128.91 88.35L128.29 88.31C127.35 88.26 126.74 88.12 126.48 87.92C126.22 87.71 126.09 87.27 126.09 86.59C126.09 85.91 126.25 85.43 126.56 85.2C126.88 84.97 127.51 84.85 128.45 84.85C129.35 84.85 129.95 84.96 130.26 85.17C130.57 85.38 130.73 85.8 130.73 86.41V86.64H130.72Z" fill="#002C28"/>
<path d="M136.97 86.64H135.87C135.87 86.58 135.87 86.54 135.87 86.52C135.84 86.19 135.77 85.97 135.65 85.89C135.53 85.8 135.24 85.76 134.79 85.76C134.25 85.76 133.9 85.81 133.74 85.91C133.58 86.01 133.49 86.22 133.49 86.53C133.49 86.91 133.56 87.13 133.69 87.21C133.82 87.29 134.27 87.34 135.02 87.38C135.91 87.43 136.48 87.56 136.74 87.76C137 87.96 137.13 88.39 137.13 89.03C137.13 89.82 136.98 90.33 136.67 90.56C136.36 90.79 135.69 90.91 134.65 90.91C133.71 90.91 133.09 90.8 132.78 90.57C132.47 90.34 132.32 89.88 132.32 89.19V88.97H133.42V89.1C133.42 89.52 133.5 89.77 133.64 89.86C133.78 89.95 134.18 90 134.83 90C135.34 90 135.66 89.95 135.8 89.84C135.94 89.73 136.01 89.48 136.01 89.09C136.01 88.8 135.96 88.61 135.85 88.52C135.74 88.43 135.51 88.37 135.16 88.35L134.54 88.31C133.6 88.26 132.99 88.12 132.73 87.92C132.47 87.71 132.34 87.27 132.34 86.59C132.34 85.91 132.5 85.43 132.81 85.2C133.13 84.97 133.76 84.85 134.7 84.85C135.6 84.85 136.2 84.96 136.51 85.17C136.82 85.38 136.98 85.8 136.98 86.41V86.64H136.97Z" fill="#002C28"/>
<path d="M120.86 70.02H122.48C122.87 70.02 123.12 69.95 123.25 69.81C123.38 69.67 123.44 69.39 123.44 68.98C123.44 68.57 123.39 68.28 123.28 68.16C123.17 68.04 122.93 67.97 122.56 67.97H120.86V70.02ZM119.73 72.98V67.02H122.67C123.4 67.02 123.9 67.15 124.18 67.4C124.46 67.65 124.6 68.11 124.6 68.78C124.6 69.38 124.53 69.8 124.39 70.02C124.25 70.24 123.97 70.39 123.54 70.48V70.52C124.2 70.56 124.53 70.95 124.53 71.68V72.99H123.4V71.9C123.4 71.29 123.1 70.98 122.49 70.98H120.86V72.99H119.73V72.98Z" fill="#002C28"/>
<path d="M129.87 77.7H128.77C128.77 77.64 128.77 77.6 128.77 77.58C128.74 77.25 128.67 77.03 128.55 76.95C128.43 76.86 128.14 76.82 127.69 76.82C127.15 76.82 126.8 76.87 126.64 76.97C126.48 77.07 126.39 77.28 126.39 77.6C126.39 77.98 126.46 78.2 126.59 78.28C126.72 78.36 127.17 78.41 127.92 78.45C128.81 78.5 129.38 78.63 129.64 78.83C129.9 79.03 130.03 79.46 130.03 80.1C130.03 80.89 129.88 81.4 129.57 81.63C129.27 81.86 128.59 81.98 127.55 81.98C126.61 81.98 125.99 81.87 125.68 81.64C125.37 81.41 125.22 80.95 125.22 80.26V80.04H126.32V80.17C126.32 80.59 126.4 80.84 126.54 80.93C126.68 81.02 127.08 81.07 127.73 81.07C128.24 81.07 128.56 81.02 128.7 80.91C128.84 80.8 128.91 80.55 128.91 80.16C128.91 79.87 128.86 79.68 128.75 79.59C128.64 79.5 128.41 79.44 128.06 79.42L127.44 79.38C126.5 79.33 125.89 79.19 125.63 78.99C125.37 78.78 125.24 78.34 125.24 77.66C125.24 76.98 125.4 76.5 125.71 76.27C126.03 76.04 126.66 75.92 127.6 75.92C128.5 75.92 129.1 76.03 129.41 76.24C129.72 76.45 129.88 76.87 129.88 77.48V77.71L129.87 77.7Z" fill="#002C28"/>
<path d="M139.8 85.86V87.4H142.6V88.23H139.8V89.91H142.78V90.87H138.67V84.91H142.75V85.86H139.8Z" fill="#002C28"/>
<path d="M146.89 85.92V90.87H145.76V85.92H144.04V84.91H148.67V85.92H146.89Z" fill="#002C28"/>
<path d="M154.56 86.64H153.46C153.46 86.58 153.46 86.54 153.46 86.52C153.43 86.19 153.36 85.97 153.24 85.89C153.12 85.8 152.83 85.76 152.38 85.76C151.84 85.76 151.49 85.81 151.33 85.91C151.17 86.01 151.08 86.22 151.08 86.53C151.08 86.91 151.15 87.13 151.28 87.21C151.41 87.29 151.86 87.34 152.61 87.38C153.5 87.43 154.07 87.56 154.33 87.76C154.59 87.96 154.72 88.39 154.72 89.03C154.72 89.82 154.57 90.33 154.26 90.56C153.96 90.79 153.28 90.91 152.24 90.91C151.3 90.91 150.68 90.8 150.37 90.57C150.06 90.34 149.91 89.88 149.91 89.19V88.97H151.01V89.1C151.01 89.52 151.09 89.77 151.23 89.86C151.37 89.95 151.77 90 152.42 90C152.93 90 153.25 89.95 153.39 89.84C153.53 89.73 153.6 89.48 153.6 89.09C153.6 88.8 153.55 88.61 153.44 88.52C153.33 88.43 153.1 88.37 152.75 88.35L152.13 88.31C151.19 88.26 150.58 88.12 150.32 87.92C150.06 87.71 149.93 87.27 149.93 86.59C149.93 85.91 150.09 85.43 150.4 85.2C150.72 84.97 151.35 84.85 152.29 84.85C153.19 84.85 153.79 84.96 154.1 85.17C154.41 85.38 154.57 85.8 154.57 86.41V86.64H154.56Z" fill="#002C28"/>
</g>
<defs>
<clipPath id="clip0_1_246">
<rect width="174.14" height="200.43" fill="white"/>
</clipPath>
</defs>
</svg>
