<svg width="42" height="49" viewBox="0 0 42 49" fill="none" xmlns="http://www.w3.org/2000/svg">
<g clip-path="url(#clip0_7_440)">
<path d="M25.4308 23.4549H24.7073C22.5342 23.4549 19.6038 23.4353 17.4331 23.4671C17.4669 21.1837 17.4572 18.1669 17.4572 15.8835V15.2185C17.4018 15.2088 17.5127 15.2283 17.4572 15.2185C16.8712 17.9566 16.1162 20.6654 15.5205 23.4524C13.6827 23.4524 11.8786 23.4622 10.0721 23.4329C9.53671 20.9857 8.45861 17.6242 7.93765 15.1745C7.90389 15.0181 8.07513 15.3261 7.93765 15.1745V23.4011H0.000244141V0.0464501C0.195604 0.0342264 0.390964 0.0146685 0.586324 0.0146685C3.60355 0.0146685 7.08386 0.019558 10.1011 0L12.7324 10.73C12.5853 10.5417 12.7758 10.9231 12.7324 10.73L15.5953 0.00488949C18.7524 0.019558 22.2737 0.00244474 25.4308 0.0293369V23.4549Z" fill="#002C28"/>
<path d="M25.4283 25.6258V49.0025H17.5729L8.14254 37.4999C8.00024 37.3361 8.41025 37.7933 8.14254 37.4999V49.0025H0.00012207V25.6258H7.78076L17.5729 38.0671V25.6258H25.2788" fill="#002C28"/>
<path d="M41.9567 0.0562134H27.5531V23.4084H41.9567V0.0562134Z" fill="#002C28"/>
<path d="M35.218 26.3176H27.3625V49.0024H35.218V26.3176Z" fill="#002C28"/>
<path d="M42 25.6258H18.9379V33.5884H42V25.6258Z" fill="#002C28"/>
<path d="M30.7271 16.6169V16.9934H31.4V17.1988H30.7271V17.6095H31.4434V17.8417H30.4521V16.3847H31.4362V16.6169H30.7271Z" fill="#BED747"/>
<path d="M32.6686 17.3577L32.4202 16.5998L32.1766 17.3577H32.6686ZM32.7313 17.563H32.1114L32.0222 17.8417H31.7328L32.2103 16.3847H32.6203L33.1051 17.8417H32.8205L32.7289 17.563H32.7313Z" fill="#BED747"/>
<path d="M33.7202 16.3847V17.5948H34.3931V17.8417H33.4476V16.3847H33.7202Z" fill="#BED747"/>
<path d="M29.1207 18.805V19.179H29.7936V19.3844H29.1207V19.7951H29.837V20.0273H28.8481V18.5703H29.8298V18.805H29.1207Z" fill="#BED747"/>
<path d="M32.3356 18.8196V20.0273H32.063V18.8196H31.6482V18.5703H32.7649V18.8196H32.3356Z" fill="#BED747"/>
<path d="M33.9251 19.5457L33.6767 18.7879L33.4331 19.5457H33.9251ZM33.9902 19.7486H33.3704L33.2811 20.0273H32.9917L33.4692 18.5703H33.8793L34.364 20.0273H34.0794L33.9878 19.7486H33.9902Z" fill="#BED747"/>
<path d="M35.2759 18.8196V20.0273H35.0033V18.8196H34.5885V18.5703H35.7076V18.8196H35.2759Z" fill="#BED747"/>
<path d="M36.3033 18.805V19.179H36.9786V19.3844H36.3033V19.7951H37.022V20.0273H36.0308V18.5703H37.0148V18.805H36.3033Z" fill="#BED747"/>
<path d="M29.6827 21.7313L29.4343 20.9734L29.1907 21.7313H29.6827ZM29.7455 21.9342H29.1256L29.0364 22.2129H28.7469L29.2245 20.7559H29.6345L30.1193 22.2129H29.8347L29.743 21.9342H29.7455Z" fill="#BED747"/>
<path d="M31.5279 21.1813H31.2626C31.2626 21.1666 31.2626 21.1568 31.2626 21.152C31.2553 21.0713 31.2385 21.0175 31.2095 20.9979C31.1806 20.9759 31.1106 20.9662 31.0021 20.9662C30.8719 20.9662 30.7874 20.9784 30.7489 21.0028C30.7103 21.0273 30.6886 21.0786 30.6886 21.1544C30.6886 21.2473 30.7054 21.3011 30.7368 21.3206C30.7682 21.3402 30.8767 21.3524 31.0576 21.3622C31.2722 21.3744 31.4097 21.4062 31.4724 21.4551C31.5351 21.504 31.5665 21.6091 31.5665 21.7656C31.5665 21.9587 31.5303 22.0834 31.4555 22.1396C31.3832 22.1959 31.2192 22.2252 30.9683 22.2252C30.7416 22.2252 30.5921 22.1983 30.5173 22.1421C30.4425 22.0858 30.4064 21.9734 30.4064 21.8047V21.7509H30.6717V21.7827C30.6717 21.8854 30.691 21.9465 30.7247 21.9685C30.7585 21.9905 30.855 22.0027 31.0117 22.0027C31.1348 22.0027 31.2119 21.9905 31.2457 21.9636C31.2795 21.9367 31.2963 21.8756 31.2963 21.7803C31.2963 21.7094 31.2843 21.6629 31.2578 21.6409C31.2312 21.6189 31.1758 21.6042 31.0913 21.5993L30.9418 21.5896C30.7151 21.5773 30.568 21.5431 30.5053 21.4942C30.4426 21.4429 30.4112 21.3353 30.4112 21.1691C30.4112 21.0028 30.4498 20.8855 30.5246 20.8292C30.6017 20.773 30.7537 20.7437 30.9804 20.7437C31.1975 20.7437 31.3422 20.7706 31.4169 20.8219C31.4917 20.8733 31.5303 20.9759 31.5303 21.1251V21.1813H31.5279Z" fill="#BED747"/>
<path d="M33.0352 21.1813H32.7699C32.7699 21.1666 32.7699 21.1568 32.7699 21.152C32.7627 21.0713 32.7458 21.0175 32.7168 20.9979C32.6879 20.9759 32.618 20.9662 32.5094 20.9662C32.3792 20.9662 32.2948 20.9784 32.2562 21.0028C32.2176 21.0273 32.1959 21.0786 32.1959 21.1544C32.1959 21.2473 32.2128 21.3011 32.2441 21.3206C32.2755 21.3402 32.384 21.3524 32.5649 21.3622C32.7796 21.3744 32.917 21.4062 32.9797 21.4551C33.0424 21.504 33.0738 21.6091 33.0738 21.7656C33.0738 21.9587 33.0376 22.0834 32.9628 22.1396C32.8881 22.1959 32.7265 22.2252 32.4757 22.2252C32.2489 22.2252 32.0994 22.1983 32.0246 22.1421C31.9499 22.0858 31.9137 21.9734 31.9137 21.8047V21.7509H32.179V21.7827C32.179 21.8854 32.1983 21.9465 32.2321 21.9685C32.2658 21.9905 32.3623 22.0027 32.5191 22.0027C32.6421 22.0027 32.7193 21.9905 32.753 21.9636C32.7868 21.9367 32.8037 21.8756 32.8037 21.7803C32.8037 21.7094 32.7916 21.6629 32.7651 21.6409C32.7385 21.6189 32.6831 21.6042 32.5987 21.5993L32.4491 21.5896C32.2224 21.5773 32.0753 21.5431 32.0126 21.4942C31.9499 21.4429 31.9185 21.3353 31.9185 21.1691C31.9185 21.0028 31.9571 20.8855 32.0319 20.8292C32.1091 20.773 32.261 20.7437 32.4877 20.7437C32.7048 20.7437 32.8495 20.7706 32.9243 20.8219C32.999 20.8733 33.0376 20.9759 33.0376 21.1251V21.1813H33.0352Z" fill="#BED747"/>
<path d="M29.1496 17.1181H29.5403C29.6344 17.1181 29.6947 17.101 29.726 17.0668C29.7574 17.0325 29.7719 16.9641 29.7719 16.8638C29.7719 16.7636 29.7598 16.6927 29.7333 16.6634C29.7068 16.634 29.6489 16.6169 29.5596 16.6169H29.1496V17.1181ZM28.8771 17.8417V16.3847H29.5862C29.7622 16.3847 29.8828 16.4165 29.9503 16.4776C30.0179 16.5387 30.0516 16.6512 30.0516 16.8149C30.0516 16.9616 30.0348 17.0643 30.001 17.1181C29.9672 17.1719 29.8997 17.2086 29.796 17.2306V17.2403C29.9552 17.2501 30.0348 17.3455 30.0348 17.5239V17.8442H29.7622V17.5777C29.7622 17.4286 29.6899 17.3528 29.5427 17.3528H29.1496V17.8442H28.8771V17.8417Z" fill="#BED747"/>
<path d="M31.3228 18.9956H31.0575C31.0575 18.981 31.0575 18.9712 31.0575 18.9663C31.0503 18.8856 31.0334 18.8319 31.0044 18.8123C30.9755 18.7903 30.9056 18.7805 30.797 18.7805C30.6668 18.7805 30.5824 18.7927 30.5438 18.8172C30.5052 18.8416 30.4835 18.893 30.4835 18.9712C30.4835 19.0641 30.5004 19.1179 30.5317 19.1374C30.5631 19.157 30.6716 19.1692 30.8525 19.179C31.0671 19.1912 31.2046 19.223 31.2673 19.2719C31.33 19.3208 31.3614 19.4259 31.3614 19.5824C31.3614 19.7755 31.3252 19.9002 31.2505 19.9564C31.1781 20.0127 31.0141 20.042 30.7633 20.042C30.5365 20.042 30.387 20.0151 30.3122 19.9589C30.2375 19.9027 30.2013 19.7902 30.2013 19.6215V19.5677H30.4666V19.5995C30.4666 19.7022 30.4859 19.7633 30.5197 19.7853C30.5534 19.8073 30.6499 19.8195 30.8067 19.8195C30.9297 19.8195 31.0069 19.8073 31.0406 19.7804C31.0744 19.7535 31.0913 19.6924 31.0913 19.5971C31.0913 19.5262 31.0792 19.4797 31.0527 19.4577C31.0261 19.4357 30.9707 19.421 30.8863 19.4161L30.7367 19.4064C30.51 19.3941 30.3629 19.3599 30.3002 19.311C30.2375 19.2597 30.2061 19.1521 30.2061 18.9859C30.2061 18.8196 30.2447 18.7023 30.3195 18.6461C30.3967 18.5898 30.5486 18.5605 30.7753 18.5605C30.9924 18.5605 31.1371 18.5874 31.2119 18.6387C31.2866 18.6901 31.3252 18.7927 31.3252 18.9419V18.9981L31.3228 18.9956Z" fill="#BED747"/>
<path d="M33.7177 20.9906V21.3671H34.3931V21.57H33.7177V21.9807H34.4365V22.2154H33.4452V20.7584H34.4292V20.9906H33.7177Z" fill="#BED747"/>
<path d="M35.4277 21.0053V22.2154H35.1552V21.0053H34.7404V20.7584H35.857V21.0053H35.4277Z" fill="#BED747"/>
<path d="M37.2775 21.1813H37.0122C37.0122 21.1666 37.0122 21.1568 37.0122 21.152C37.005 21.0713 36.9881 21.0175 36.9592 20.9979C36.9302 20.9759 36.8603 20.9662 36.7517 20.9662C36.6215 20.9662 36.5371 20.9784 36.4985 21.0028C36.4599 21.0273 36.4382 21.0786 36.4382 21.1544C36.4382 21.2473 36.4551 21.3011 36.4864 21.3206C36.5178 21.3402 36.6263 21.3524 36.8072 21.3622C37.0219 21.3744 37.1593 21.4062 37.222 21.4551C37.2848 21.504 37.3161 21.6091 37.3161 21.7656C37.3161 21.9587 37.2799 22.0834 37.2052 22.1396C37.1328 22.1959 36.9688 22.2252 36.718 22.2252C36.4913 22.2252 36.3417 22.1983 36.2669 22.1421C36.1922 22.0858 36.156 21.9734 36.156 21.8047V21.7509H36.4213V21.7827C36.4213 21.8854 36.4406 21.9465 36.4744 21.9685C36.5081 21.9905 36.6046 22.0027 36.7614 22.0027C36.8844 22.0027 36.9616 21.9905 36.9953 21.9636C37.0291 21.9367 37.046 21.8756 37.046 21.7803C37.046 21.7094 37.0339 21.6629 37.0074 21.6409C36.9809 21.6189 36.9254 21.6042 36.841 21.5993L36.6914 21.5896C36.4647 21.5773 36.3176 21.5431 36.2549 21.4942C36.1922 21.4429 36.1608 21.3353 36.1608 21.1691C36.1608 21.0028 36.1994 20.8855 36.2742 20.8292C36.3514 20.773 36.5033 20.7437 36.73 20.7437C36.9471 20.7437 37.0918 20.7706 37.1666 20.8219C37.2413 20.8733 37.2799 20.9759 37.2799 21.1251V21.1813H37.2775Z" fill="#BED747"/>
</g>
<defs>
<clipPath id="clip0_7_440">
<rect width="42" height="49" fill="white"/>
</clipPath>
</defs>
</svg>
